<svg id="Layer_1" data-name="Layer 1" xmlns="http://www.w3.org/2000/svg" viewBox="0 0 129 87.14"><defs><style>.cls-1,.cls-2,.cls-4{fill:#fff;}.cls-1,.cls-2,.cls-3,.cls-4,.cls-5{stroke:#000;stroke-miterlimit:10;}.cls-1{stroke-width:8px;}.cls-2,.cls-3{stroke-width:7px;}.cls-3{fill:#ccc;}.cls-4,.cls-5{stroke-width:3px;}.cls-5{fill:none;}</style></defs><path class="cls-1" d="M-19-96" transform="translate(-16.5 -27.5)"/><path class="cls-2" d="M36,100.75" transform="translate(-16.5 -27.5)"/><path class="cls-2" d="M27,95" transform="translate(-16.5 -27.5)"/><path class="cls-2" d="M36,94.45V31H142V99.78A11.22,11.22,0,0,1,130.78,111H36a18.51,18.51,0,0,1-11-2,17.25,17.25,0,0,1-4-3" transform="translate(-16.5 -27.5)"/><path class="cls-2" d="M41,96.14" transform="translate(-16.5 -27.5)"/><path class="cls-3" d="M3.5,11.5h16a0,0,0,0,1,0,0v63a8,8,0,0,1-8,8h0a8,8,0,0,1-8-8v-63a0,0,0,0,1,0,0Z"/><rect class="cls-2" x="34" y="16.5" width="35" height="35.5"/><path class="cls-4" d="M65.7,68.65A7.31,7.31,0,0,0,65.7,54" transform="translate(-16.5 -27.5)"/><line class="cls-5" x1="48.12" y1="25.05" x2="48.12" y2="42.65"/><rect x="84" y="13.25" width="30.5" height="7"/><rect x="84" y="30.28" width="30.5" height="7"/><rect class="cls-2" x="87.34" y="51" width="23.5" height="17.95"/><rect x="30.29" y="63.55" width="42.21" height="7"/></svg>